<?xml version="1.0" encoding="utf-8"?>
<!-- Generator: Adobe Illustrator 19.2.0, SVG Export Plug-In . SVG Version: 6.00 Build 0)  -->
<svg version="1.1" id="Calque_1" xmlns="http://www.w3.org/2000/svg" xmlns:xlink="http://www.w3.org/1999/xlink" x="0px" y="0px"
	 viewBox="0 0 230 131.1" style="enable-background:new 0 0 230 131.1;" xml:space="preserve">
<style type="text/css">
	.st0{fill:#008B3D;}
	.st1{fill:#FFFFFF;}
</style>
<circle class="st0" cx="65.6" cy="65.6" r="65.6"/>
<g>
	<path class="st1" d="M79.7,51.7c0-1.7-0.4-2.6-0.7-3c-0.2-0.3-0.5-0.5-0.8-0.5h-7.8c-1.1-0.3-2.5-0.5-3.4-0.5
		c-5.4,0-11.9,2.3-11.9,13c0,4.6,1.2,7.9,3.5,10c-1.8,1.6-3.6,3.7-3.7,5.9c0,1.2,0.5,2.8,3,4c-2.6,2.2-4,4.8-4,7.6
		c0,5.4,3.9,8.1,11.5,8.1c10,0,13.6-6.3,13.6-11.7c0-6.3-4.8-7.9-9.5-8.6L68,75.6c-2.2-0.3-5-0.6-5.4-0.9c0-0.3,0.4-1.1,1.1-1.9
		c0.7,0.1,1.6,0.2,2.6,0.2C74,73,78,68.7,78,60.5c0-2.3-0.5-4.3-1.3-5.9C78.5,54.8,79.7,53.6,79.7,51.7z M66.6,67.1
		c-3,0-3.9-1.5-3.9-6.5c0-3.2,0.7-7,4.1-7c2,0,3.9,0.7,3.9,5.8C70.7,66.3,68.4,67.1,66.6,67.1z M65.2,81.9c6,0.4,6.7,1.3,6.7,3.3
		c0,1.7-1.5,4.1-5.8,4.1c-4.6,0-4.6-1.5-4.6-2.6c0-1.8,1.4-3.7,2.9-5C64.6,81.9,64.9,82,65.2,81.9z"/>
	<path class="st1" d="M101.2,68c0.7-2.9,0.7-6.8,0.7-8.8c0-9.6-5.1-11.6-9.3-11.6c-5.9,0-12.6,2.3-12.6,19.8
		c0,11.5,3.4,16.4,11.5,16.4c5,0,10-1.6,10-4.6c0-1.1-0.1-2.8-0.5-3.9c-0.1-0.3-0.3-0.5-0.6-0.6c-0.3-0.1-0.6-0.1-0.8,0.1
		c-2.2,1.2-4.7,1.9-7.1,1.9c-3.2,0-4.8-1.1-5.2-7c2.5,0,8.4-0.2,13-1.1C100.8,68.7,101.1,68.4,101.2,68z M87.5,63.6
		c0.6-9.4,3.5-9.4,4.5-9.4c1.7,0,2.8,0.4,2.8,5.6c0,1.3-0.1,2.3-0.2,3.2C93,63.4,90.3,63.6,87.5,63.6z"/>
	<path class="st1" d="M116.6,47.7c-7.9,0-11.9,6.1-11.9,18.1c0,15.3,3.8,18.1,11.3,18.1c7.9,0,11.8-6,11.8-18.3
		C127.7,52.5,124.7,47.7,116.6,47.7z M120.1,65.6c0,11.8-2.8,11.8-3.9,11.8c-1.8,0-3.7,0-3.7-11.5c0-11.7,2.7-11.7,4-11.7
		C118.1,54.2,120.1,54.2,120.1,65.6z"/>
</g>
<g>
	<path class="st0" d="M146.2,54.8c2,0,2-1.2,2-5.6c0-0.5-0.4-0.9-0.9-0.9h-5.8V37.4c0-0.5-0.4-0.9-0.9-0.9c-4.5,0-6.3,0-6.3,2.8v9.1
		h-7.4c-0.5,0-0.9,0.3-1,0.8c-0.1,0.4,0.1,0.9,0.6,1c0,0,0.9,0.6,0.9,3.8c0,0.5,0.4,0.9,0.9,0.9h5.9v18.3c0,5.5,0.6,10.8,7.3,10.8
		c5.8,0,6.6-2.4,6.6-3.9c0-1.2-0.2-2.1-0.4-2.9c-0.1-0.3-0.3-0.5-0.5-0.6c-0.3-0.1-0.6-0.1-0.8,0c-1.2,0.6-2,0.9-3.4,0.9
		c-1.3,0-1.4-1-1.4-4.3V54.8H146.2z"/>
	<path class="st0" d="M170.7,68c0.7-2.9,0.7-6.8,0.7-8.8c0-9.6-5.1-11.6-9.3-11.6c-5.9,0-12.6,2.3-12.6,19.8
		c0,11.5,3.4,16.4,11.5,16.4c5,0,10-1.6,10-4.6c0-1.1-0.1-2.8-0.5-3.9c-0.1-0.3-0.3-0.5-0.5-0.6c-0.3-0.1-0.6-0.1-0.8,0.1
		c-2.2,1.2-4.7,1.9-7.1,1.9c-3.2,0-4.8-1.1-5.2-7c2.5,0,8.4-0.2,13-1.1C170.3,68.7,170.6,68.4,170.7,68z M157.1,63.6
		c0.6-9.4,3.5-9.4,4.5-9.4c1.7,0,2.8,0.4,2.8,5.6c0,1.3-0.1,2.3-0.2,3.2C162.5,63.4,159.8,63.6,157.1,63.6z"/>
	<path class="st0" d="M185.5,47.7c-3.2,0-6.6,1.1-9.5,3.1c-0.3,0.2-0.4,0.5-0.4,0.8v30.7c0,0.5,0.4,0.9,0.9,0.9c5.6,0,6.3,0,6.3-2
		l0.1-25.5c1.7-1.2,4.2-1.4,6.2-0.4c0.2,0.1,0.5,0.1,0.8,0.1c0.2-0.1,0.4-0.3,0.5-0.5c0.5-1.2,0.7-2.6,0.7-3.5
		C191.1,48.9,189.2,47.7,185.5,47.7z"/>
	<path class="st0" d="M202.9,47.7c-3.2,0-6.6,1.1-9.5,3.1c-0.3,0.2-0.4,0.5-0.4,0.8v30.7c0,0.5,0.4,0.9,0.9,0.9c5.6,0,6.3,0,6.3-2
		l0.1-25.5c1.7-1.2,4.2-1.4,6.2-0.4c0.2,0.1,0.5,0.1,0.8,0.1c0.2-0.1,0.4-0.3,0.5-0.5c0.5-1.2,0.7-2.6,0.7-3.5
		C208.4,48.9,206.6,47.7,202.9,47.7z"/>
	<path class="st0" d="M228.5,74.8c-0.3-0.1-0.6-0.1-0.8,0.1c-2.2,1.2-4.7,1.9-7.1,1.9c-3.2,0-4.8-1.1-5.2-7c2.5,0,8.4-0.2,13-1.1
		c0.4-0.1,0.7-0.3,0.7-0.7c0.7-2.9,0.7-6.8,0.7-8.8c0-9.6-5.1-11.6-9.3-11.6c-5.9,0-12.6,2.3-12.6,19.8c0,11.5,3.4,16.4,11.5,16.4
		c5,0,10-1.6,10-4.6c0-1.1-0.1-2.8-0.5-3.9C229,75.1,228.8,74.9,228.5,74.8z M215.6,63.6c0.6-9.4,3.5-9.4,4.5-9.4
		c1.7,0,2.8,0.4,2.8,5.6c0,1.3-0.1,2.3-0.2,3.2C221.1,63.4,218.4,63.6,215.6,63.6z"/>
</g>
</svg>
